<?xml version="1.0" encoding="utf-8"?>
<!-- Generator: Adobe Illustrator 27.4.1, SVG Export Plug-In . SVG Version: 6.00 Build 0)  -->
<svg version="1.1" id="Layer_1" xmlns="http://www.w3.org/2000/svg" xmlns:xlink="http://www.w3.org/1999/xlink" x="0px" y="0px"
	 viewBox="0 0 500 500" style="enable-background:new 0 0 500 500;" xml:space="preserve">
<style type="text/css">
	.st0{fill:#263238;}
	.st1{fill:#E0E0E0;}
	.st2{fill:#FFFFFF;}
	.st3{opacity:0.3;}
	.st4{fill:#3687C8;}
</style>
<g id="freepik--Floor--inject-16">
	<path class="st0" d="M462.2,466.7c0,0.1-96.3,0.3-215.2,0.3s-215.2-0.1-215.2-0.3s96.3-0.3,215.2-0.3S462.2,466.6,462.2,466.7z"/>
</g>
<g id="freepik--Device--inject-16">
	<path class="st1" d="M84.8,447.4c0,0-3.4,13.6,26.2,14.6s90.3,2.1,90.3,2.1l-3.8-29.3l-94.7-5l-15.1,8.5L84.8,447.4z"/>
	<path class="st0" d="M122.9,45.2h281.9c11.6,0,21,7.2,21,16v389.7c0,8.8-9.4,16-21,16H122.9c-11.6,0-21-7.2-21-16V61.2
		C101.9,52.4,111.3,45.2,122.9,45.2z"/>
	<path class="st2" d="M119.7,64.5H408l0,0v386.4l0,0H126.6c-3.8,0-6.9-2.3-6.9-5.2L119.7,64.5L119.7,64.5z"/>
	<path class="st0" d="M159,105.8v2.8h-0.3c-0.2-0.6-0.6-1.2-1.3-1.7c-0.6-0.4-1.3-0.6-2.1-0.6c-0.6,0-1.3,0.1-1.8,0.4
		c-0.5,0.3-1,0.7-1.2,1.1c-0.3,0.6-0.5,1.3-0.5,2c0,0.7,0.1,1.3,0.4,1.9c0.2,0.5,0.6,1,1.1,1.3c0.6,0.3,1.3,0.5,2,0.4
		c0.6,0,1.2-0.1,1.8-0.3c0.7-0.3,1.3-0.7,1.7-1.1v0.7c-0.5,0.4-1.1,0.8-1.8,1c-0.7,0.2-1.5,0.3-2.2,0.3c-1,0-2-0.2-3-0.5
		c-0.8-0.3-1.5-0.8-2-1.5c-0.5-0.6-0.7-1.3-0.7-2c0-0.8,0.3-1.5,0.8-2.2c0.5-0.7,1.2-1.2,2.1-1.6c0.9-0.4,1.8-0.6,2.8-0.6
		c0.8,0,1.6,0.1,2.3,0.4c0.3,0.1,0.6,0.2,0.9,0.2c0.2,0,0.3,0,0.4-0.1c0.1-0.1,0.2-0.3,0.2-0.4L159,105.8z"/>
	<path class="st0" d="M163.4,106v3.2c0.3-0.3,0.7-0.5,1.1-0.7c0.3-0.1,0.7-0.2,1-0.2c0.4,0,0.8,0.1,1.2,0.3c0.3,0.2,0.5,0.4,0.6,0.7
		c0.1,0.4,0.2,0.9,0.2,1.3v2.1c0,0.3,0,0.5,0.1,0.8c0.2,0.1,0.4,0.2,0.6,0.2v0.2h-3.7v-0.2c0.2,0,0.4-0.1,0.6-0.2
		c0.1-0.2,0.2-0.5,0.1-0.7v-2.5c0-0.3,0-0.6-0.1-0.8c0-0.1-0.1-0.2-0.2-0.3c-0.1-0.1-0.2-0.1-0.4-0.1c-0.2,0-0.4,0.1-0.6,0.2
		c-0.3,0.2-0.5,0.3-0.6,0.6v2.9c0,0.2,0,0.5,0.1,0.7c0.1,0.1,0.4,0.2,0.6,0.2v0.2h-3.7v-0.2c0.2,0,0.5-0.1,0.6-0.2
		c0.1-0.2,0.2-0.5,0.1-0.8v-5.6c0-0.3,0-0.5-0.1-0.8c-0.2-0.1-0.4-0.2-0.6-0.2V106H163.4z"/>
	<path class="st0" d="M173.2,113.1c-0.6,0.5-1.5,0.8-2.4,0.9c-0.8,0-1.4-0.4-1.4-1c0,0,0,0,0-0.1c0-0.4,0.3-0.8,0.7-1.1
		c0.9-0.6,2-1,3.1-1.3v-0.6c0-0.3,0-0.5-0.1-0.8c-0.1-0.1-0.2-0.2-0.3-0.3c-0.2-0.1-0.4-0.1-0.6-0.1c-0.3,0-0.6,0.1-0.8,0.2
		c-0.1,0.1-0.2,0.1-0.2,0.2c0,0.1,0.1,0.2,0.2,0.3c0.2,0.1,0.3,0.3,0.3,0.5c0,0.2-0.1,0.4-0.3,0.5c-0.2,0.1-0.5,0.2-0.7,0.2
		c-0.3,0-0.6-0.1-0.8-0.2c-0.2-0.1-0.3-0.3-0.3-0.5c0-0.3,0.2-0.6,0.4-0.8c0.3-0.3,0.8-0.5,1.2-0.6c0.5-0.1,1.1-0.2,1.6-0.2
		c0.6,0,1.1,0.1,1.6,0.3c0.3,0.2,0.6,0.4,0.8,0.7c0.1,0.4,0.1,0.8,0.1,1.1v2.1c0,0.2,0,0.3,0,0.5c0,0.1,0.1,0.1,0.1,0.2
		c0.1,0,0.1,0,0.2,0c0.1,0,0.3-0.1,0.4-0.2l0.2,0.1c-0.2,0.3-0.5,0.5-0.8,0.6c-0.3,0.1-0.6,0.2-0.9,0.2c-0.3,0-0.7-0.1-1-0.2
		C173.3,113.6,173.2,113.4,173.2,113.1z M173.2,112.7v-1.8c-0.5,0.2-1,0.5-1.3,0.9c-0.2,0.2-0.3,0.4-0.3,0.6c0,0.2,0.1,0.3,0.2,0.5
		c0.1,0.1,0.3,0.2,0.5,0.2C172.6,113,172.9,112.9,173.2,112.7z"/>
	<path class="st0" d="M179.8,113.4v2c0,0.2,0,0.4,0.1,0.6c0,0.1,0.1,0.2,0.3,0.2c0.2,0.1,0.5,0.1,0.7,0.1v0.2h-4.1v-0.2
		c0.3,0,0.5-0.1,0.7-0.2c0.1-0.2,0.2-0.5,0.2-0.7v-5.7c0-0.3,0-0.5-0.2-0.7c-0.2-0.1-0.4-0.2-0.7-0.2v-0.2h3v0.7
		c0.2-0.2,0.5-0.5,0.8-0.6c0.4-0.2,0.8-0.3,1.2-0.3c0.5,0,1,0.1,1.4,0.4c0.5,0.3,0.8,0.6,1,1.1c0.2,0.5,0.3,0.9,0.3,1.4
		c0,0.5-0.1,1-0.4,1.5c-0.2,0.4-0.6,0.7-1,1c-0.8,0.4-1.8,0.5-2.6,0.2C180.3,113.7,180.1,113.6,179.8,113.4z M179.8,112.8
		c0.3,0.4,0.8,0.7,1.4,0.7c0.3,0,0.6-0.1,0.7-0.3c0.5-1.2,0.5-2.6,0-3.8c-0.2-0.2-0.5-0.3-0.8-0.3c-0.5,0-0.9,0.3-1.3,0.8V112.8z"/>
	<path class="st0" d="M188.7,106.4v2h1.7v0.6h-1.7v3.4c0,0.2,0,0.4,0,0.6c0,0.1,0.1,0.2,0.2,0.2c0.1,0.1,0.2,0.1,0.3,0.1
		c0.3,0,0.6-0.2,0.9-0.6l0.2,0.1c-0.3,0.7-1.1,1.1-2,1.1c-0.4,0-0.8-0.1-1.2-0.3c-0.3-0.2-0.5-0.4-0.6-0.6c0-0.4,0-0.7,0-1.1v-3
		h-0.9v-0.2c0.6-0.3,1.2-0.7,1.7-1.1c0.5-0.4,0.9-0.8,1.2-1.3L188.7,106.4z"/>
	<path class="st0" d="M197.2,111h-3.9c0,0.6,0.3,1.2,0.8,1.7c0.3,0.3,0.8,0.5,1.3,0.5c0.3,0,0.6-0.1,0.8-0.2
		c0.3-0.2,0.6-0.4,0.8-0.7l0.3,0.1c-0.3,0.5-0.7,0.9-1.3,1.3c-0.5,0.3-1,0.4-1.6,0.4c-1,0-1.9-0.3-2.4-0.9c-0.5-0.6-0.7-1.2-0.7-1.9
		c-0.1-0.8,0.3-1.6,1-2.2c0.6-0.5,1.4-0.8,2.3-0.8c0.7,0,1.4,0.3,1.9,0.7C197,109.6,197.3,110.3,197.2,111z M195.3,110.6
		c0-0.4,0-0.9-0.1-1.3c-0.1-0.2-0.2-0.4-0.4-0.5c-0.1-0.1-0.3-0.1-0.4-0.1c-0.3,0-0.5,0.1-0.7,0.3c-0.3,0.4-0.5,0.9-0.5,1.4v0.2
		H195.3z"/>
	<path class="st0" d="M201.1,108.5v1.2c0.3-0.4,0.8-0.8,1.3-1.1c0.3-0.2,0.7-0.3,1-0.3c0.3,0,0.5,0.1,0.7,0.2
		c0.2,0.2,0.3,0.4,0.2,0.6c0,0.2-0.1,0.4-0.2,0.6c-0.1,0.1-0.4,0.2-0.6,0.2c-0.3,0-0.5-0.1-0.7-0.2l-0.3-0.2c-0.1,0-0.1,0-0.2,0
		c-0.2,0-0.3,0-0.4,0.1c-0.2,0.1-0.4,0.3-0.5,0.6c-0.2,0.4-0.3,0.8-0.2,1.3v1.6c0,0.1,0,0.3,0,0.4c0.1,0.1,0.1,0.2,0.3,0.2
		c0.2,0.1,0.4,0.1,0.6,0.1v0.2h-3.9v-0.2c0.2,0,0.5-0.1,0.6-0.2c0.2-0.3,0.2-0.6,0.2-0.9v-3c0-0.2,0-0.4,0-0.6
		c0-0.1-0.1-0.2-0.2-0.2c-0.2-0.1-0.3-0.1-0.5-0.1v-0.2L201.1,108.5z"/>
	<path class="st0" d="M213.4,105.8v6.5c0,0.3,0,0.6,0.1,0.9c0.1,0.1,0.2,0.3,0.4,0.3c0.3,0.1,0.6,0.1,0.9,0.1h0.2v0.2h-5.5v-0.2h0.3
		c0.3,0,0.6,0,0.9-0.1c0.2-0.1,0.3-0.2,0.4-0.3c0.1-0.3,0.1-0.7,0.1-1v-4.1c0-0.2,0-0.5-0.1-0.7c-0.1-0.1-0.1-0.2-0.3-0.2
		c-0.1-0.1-0.3-0.1-0.4-0.1c-0.3,0-0.6,0.1-0.9,0.2l-0.1-0.2l3.8-1.3L213.4,105.8z"/>
	<path class="st0" d="M172.7,157.2v6.4H172c-0.3-1.1-0.9-2.2-1.6-3.2c-0.6-0.7-1.5-1.2-2.5-1.6c-1-0.3-2-0.4-3.1-0.3h-2.3v18.3
		c-0.1,0.8,0,1.5,0.3,2.3c0.2,0.3,0.6,0.6,1,0.8c0.6,0.3,1.4,0.4,2.1,0.3h1v0.7h-16.4v-0.6h1c0.8,0,1.5-0.1,2.2-0.4
		c0.4-0.2,0.8-0.5,0.9-0.8c0.2-0.7,0.3-1.5,0.3-2.2v-18.3h-2.3c-1.6-0.1-3.3,0.2-4.6,1c-1.4,1.1-2.3,2.5-2.5,4h-0.9v-6.4
		L172.7,157.2z"/>
	<path class="st0" d="M374.6,130.8c0,0.1-11.8,0.3-26.4,0.3s-26.4-0.1-26.4-0.3s11.8-0.3,26.4-0.3S374.6,130.7,374.6,130.8z"/>
	<path class="st0" d="M374,162.1c0,0.1-43.1,0.3-96.2,0.3s-96.2-0.1-96.2-0.3s43.1-0.3,96.2-0.3S374,161.9,374,162.1z"/>
	<path class="st0" d="M374,172.1c0,0.1-43.1,0.3-96.2,0.3s-96.2-0.1-96.2-0.3s43.1-0.3,96.2-0.3S374,172,374,172.1z"/>
	<path class="st0" d="M374,182.2c0,0.1-43.1,0.3-96.2,0.3s-96.2-0.1-96.2-0.3s43.1-0.3,96.2-0.3S374,182.1,374,182.2z"/>
	<path class="st0" d="M374,192.3c0,0.1-51.7,0.3-115.5,0.3S143,192.4,143,192.3s51.7-0.3,115.5-0.3S374,192.1,374,192.3z"/>
	<path class="st0" d="M374,202.3c0,0.1-51.7,0.3-115.5,0.3S143,202.5,143,202.3s51.7-0.3,115.5-0.3S374,202.2,374,202.3z"/>
	<path class="st0" d="M273.1,212.4c0,0.1-29.1,0.3-65,0.3s-65-0.1-65-0.3s29.1-0.3,65-0.3S273.1,212.3,273.1,212.4z"/>
	<path class="st0" d="M374,222.5c0,0.1-51.7,0.3-115.5,0.3S143,222.6,143,222.5s51.7-0.3,115.5-0.3S374,222.3,374,222.5z"/>
	<path class="st0" d="M374,232.5c0,0.1-51.7,0.3-115.5,0.3S143,232.7,143,232.5s51.7-0.3,115.5-0.3S374,232.4,374,232.5z"/>
	<path class="st0" d="M374,242.6c0,0.1-51.7,0.3-115.5,0.3S143,242.8,143,242.6s51.7-0.3,115.5-0.3S374,242.5,374,242.6z"/>
	<path class="st0" d="M374,252.7c0,0.1-51.7,0.3-115.5,0.3S143,252.8,143,252.7s51.7-0.3,115.5-0.3S374,252.5,374,252.7z"/>
	<path class="st0" d="M374,262.7c0,0.1-51.7,0.3-115.5,0.3S143,262.9,143,262.7s51.7-0.3,115.5-0.3S374,262.6,374,262.7z"/>
	<path class="st0" d="M181.5,272.8c0,0.1-8.6,0.3-19.3,0.3S143,273,143,272.8s8.6-0.3,19.3-0.3C172.9,272.5,181.5,272.7,181.5,272.8
		z"/>
	<path class="st0" d="M374,282.9c0,0.1-51.7,0.3-115.5,0.3S143,283,143,282.9s51.7-0.3,115.5-0.3S374,282.7,374,282.9z"/>
	<path class="st0" d="M374,293c0,0.1-51.7,0.3-115.5,0.3S143,293.1,143,293s51.7-0.3,115.5-0.3S374,292.8,374,293z"/>
	<path class="st0" d="M374,303c0,0.1-51.7,0.3-115.5,0.3S143,303.2,143,303s51.7-0.3,115.5-0.3S374,302.9,374,303z"/>
	<path class="st0" d="M320.3,313.1c0,0.1-39.7,0.3-88.7,0.3s-88.7-0.1-88.7-0.3s39.7-0.3,88.7-0.3S320.3,312.9,320.3,313.1z"/>
	<path class="st0" d="M374,323.1c0,0.1-51.7,0.3-115.5,0.3S143,323.3,143,323.1s51.7-0.3,115.5-0.3S374,323,374,323.1z"/>
	<path class="st0" d="M374,333.2c0,0.1-51.7,0.3-115.5,0.3S143,333.4,143,333.2s51.7-0.3,115.5-0.3S374,333.1,374,333.2z"/>
	<path class="st0" d="M342.9,343.3c0,0.1-44.7,0.3-99.9,0.3s-99.9-0.1-99.9-0.3s44.7-0.3,99.9-0.3S342.9,343.1,342.9,343.3z"/>
	<path class="st0" d="M374,353.4c0,0.1-51.7,0.3-115.5,0.3S143,353.5,143,353.4s51.7-0.3,115.5-0.3S374,353.2,374,353.4z"/>
	<path class="st0" d="M374,373.5c0,0.1-51.7,0.3-115.5,0.3S143,373.6,143,373.5s51.7-0.3,115.5-0.3S374,373.3,374,373.5z"/>
	<path class="st0" d="M374,383.6c0,0.1-51.7,0.3-115.5,0.3S143,383.7,143,383.6s51.7-0.3,115.5-0.3S374,383.4,374,383.6z"/>
	<path class="st0" d="M374,393.6c0,0.1-51.7,0.3-115.5,0.3S143,393.8,143,393.6s51.7-0.3,115.5-0.3S374,393.5,374,393.6z"/>
	<path class="st0" d="M265.7,423.3l-0.7,1.5h-6.2v-0.2c1.4-0.9,2.7-2,3.8-3.1c0.7-0.6,1-1.4,1.1-2.2c0-0.5-0.2-0.9-0.6-1.2
		c-0.4-0.3-0.9-0.5-1.5-0.5c-0.5,0-1,0.1-1.4,0.3c-0.4,0.3-0.7,0.6-0.9,1h-0.3c0.1-0.6,0.4-1.2,1-1.7c0.5-0.4,1.2-0.6,2-0.6
		c0.8,0,1.6,0.2,2.1,0.6c0.5,0.4,0.8,0.9,0.8,1.5c0,0.4-0.1,0.8-0.4,1.2c-0.5,0.7-1.1,1.4-1.8,2c-1.3,1.1-2.1,1.7-2.4,1.9h2.7
		c0.4,0,0.8,0,1.2,0c0.2,0,0.4-0.1,0.6-0.2c0.2-0.1,0.3-0.3,0.5-0.4L265.7,423.3z"/>
	<path class="st0" d="M266.9,420.9c0-0.8,0.2-1.6,0.5-2.3c0.3-0.6,0.8-1.1,1.4-1.5c0.4-0.2,0.9-0.4,1.4-0.4c0.9,0,1.7,0.4,2.2,0.9
		c0.9,0.9,1.3,2,1.2,3.1c0,0.8-0.1,1.6-0.5,2.4c-0.2,0.6-0.7,1-1.3,1.4c-0.4,0.3-1,0.4-1.6,0.4c-1.1-0.1-2.1-0.6-2.5-1.3
		C267.2,422.8,266.9,421.9,266.9,420.9z M268.4,421.1c0,0.9,0.1,1.8,0.5,2.7c0.3,0.6,0.7,0.9,1.3,0.9c0.3,0,0.6-0.1,0.9-0.3
		c0.4-0.3,0.6-0.6,0.7-1c0.3-0.9,0.4-1.9,0.4-2.9c0-0.8-0.1-1.5-0.4-2.3c-0.1-0.4-0.4-0.7-0.7-1c-0.5-0.3-1.3-0.2-1.7,0.2
		c0,0,0,0,0,0c-0.4,0.4-0.7,1-0.8,1.5C268.5,419.6,268.4,420.4,268.4,421.1L268.4,421.1z"/>
	<path class="st2" d="M122,449.9c-9.8-12.7-30.5-12.8-37.2-2.6V73.6c-0.1-6.9,6.6-12.9,15.6-13.9c5.7-0.6,11,1.1,19.9,5L122,449.9z"
		/>
	<path class="st0" d="M122,449.9c0-2.8-0.9-169.7-2.1-385.2L120,65c-2.7-1.2-5.5-2.3-8.3-3.3c-2.9-1.1-6-1.7-9.2-1.8
		c-3.3,0-6.5,0.7-9.2,2.1c-2.8,1.4-5,3.3-6.4,5.5c-0.7,1.2-1.3,2.4-1.6,3.7c-0.2,1.3-0.3,2.6-0.3,3.9c0,2.7,0,5.3,0,7.9v46.7
		c0,20.4,0,40.3,0,59.7c0,38.6,0,74.9,0,107.8c0,65.8-0.1,118.3-0.1,150.1l-0.3,0c1.6-2.4,4.1-4.4,7.2-5.7c2.7-1.1,5.8-1.6,8.8-1.6
		c1.4,0,2.7,0.1,4.1,0.2c0.6,0.1,1.3,0.2,1.9,0.4c0.6,0.1,1.2,0.2,1.7,0.4c1.1,0.3,2.1,0.6,3.1,1.1l1.4,0.6c0.4,0.2,0.8,0.4,1.2,0.7
		c0.8,0.4,1.5,0.8,2.1,1.3c0.6,0.5,1.2,0.8,1.7,1.2c0.8,0.7,1.6,1.4,2.3,2.2C121.4,449.3,121.9,449.8,122,449.9l-1.7-1.8
		c-0.6-0.6-1.4-1.3-2.4-2.2c-0.5-0.4-1.1-0.8-1.7-1.2c-0.7-0.5-1.4-0.9-2.1-1.3c-0.4-0.2-0.8-0.4-1.2-0.6l-1.4-0.6
		c-1-0.4-2-0.8-3.1-1.1c-0.6-0.2-1.1-0.3-1.7-0.4c-0.6-0.1-1.2-0.2-1.9-0.4c-1.3-0.2-2.7-0.2-4.1-0.2c-3,0-6,0.6-8.7,1.7
		c-3.1,1.3-5.6,3.2-7.1,5.6l-0.3,0.4v-0.4c0-31.8-0.1-84.3-0.1-150.1c0-32.9,0-69.1,0-107.8c0-19.3,0-39.2,0-59.7v-31
		c0-5.2,0-10.5,0-15.7v-7.9c-0.1-1.3,0-2.7,0.3-4c0.3-1.3,0.8-2.6,1.6-3.9c1.5-2.3,3.7-4.3,6.6-5.8c2.8-1.4,6.1-2.2,9.5-2.2
		c3.3,0.1,6.5,0.7,9.5,1.8c2.9,1,5.7,2.2,8.4,3.4l0.2,0.1v0.2C121.4,280.2,122,447.2,122,449.9z"/>
	<g class="st3">
		<path d="M334.8,64.5v46.1c0,0.6,0.6,1.1,1.4,1.1c0.4,0,0.7-0.1,1-0.3l14.6-11.1c0.6-0.4,1.5-0.4,2,0l14.6,11.1
			c0.5,0.4,1.4,0.4,2,0c0.3-0.2,0.4-0.5,0.4-0.8V64.5H334.8z"/>
	</g>
	<path class="st4" d="M331.8,64.5v41.9c0,0.6,0.6,1.1,1.4,1.1c0.4,0,0.7-0.1,1-0.3l14.6-11.1c0.5-0.4,1.4-0.4,2,0c0,0,0,0,0,0
		l14.6,11.1c0.5,0.4,1.4,0.4,2,0c0.3-0.2,0.4-0.5,0.4-0.8V64.5H331.8z"/>
</g>
</svg>
